<?xml version="1.0" encoding="UTF-8"?>
<svg xmlns="http://www.w3.org/2000/svg" viewBox="0 0 761 191" width="761" height="191">
  <defs>
    <style>
      /* Clean, crisp rendering with no blur effects */
      .logo-text {
        fill: #2a2c2a;
        font-family: 'Arial Black', 'Arial Bold', 'Helvetica Bold', sans-serif;
        font-weight: 900;
        font-size: 98px;
        letter-spacing: 2px;
      }
      .icon-blue {
        fill: none;
        stroke: #4455a5;
        stroke-width: 1;
        stroke-linejoin: miter;
        stroke-linecap: square;
      }
      .icon-fill-blue {
        fill: #4455a5;
        fill-opacity: 0.15;
      }
    </style>
  </defs>
  
  <!-- 3D Perspective F Icon -->
  <g id="f-icon" transform="translate(15, 25)">
    <!-- Front face (main square) -->
    <rect class="icon-fill-blue" x="0" y="0" width="85" height="130"/>
    <rect class="icon-blue" x="0" y="0" width="85" height="130"/>
    
    <!-- Top face (perspective) -->
    <path class="icon-fill-blue" d="M 0,0 L 20,20 L 105,20 L 85,0 Z"/>
    <path class="icon-blue" d="M 0,0 L 20,20 L 105,20 L 85,0 Z"/>
    
    <!-- Right face (perspective) -->
    <path class="icon-fill-blue" d="M 85,0 L 105,20 L 105,150 L 85,130 Z"/>
    <path class="icon-blue" d="M 85,0 L 105,20 L 105,150 L 85,130 Z"/>
    
    <!-- Back edges for depth -->
    <line class="icon-blue" x1="20" y1="20" x2="20" y2="150"/>
    <line class="icon-blue" x1="20" y1="150" x2="105" y2="150"/>
    
    <!-- F letter inside the box (bold strokes) -->
    <g id="f-letter" stroke="#4455a5" stroke-width="7" stroke-linecap="square" fill="none">
      <!-- Vertical bar of F -->
      <line x1="23" y1="35" x2="23" y2="110"/>
      <!-- Top horizontal bar -->
      <line x1="23" y1="35" x2="67" y2="35"/>
      <!-- Middle horizontal bar -->
      <line x1="23" y1="67" x2="57" y2="67"/>
    </g>
  </g>
  
  <!-- FEWLINES Text -->
  <g id="text-group">
    <text class="logo-text" x="145" y="125">FEWLINES</text>
  </g>
</svg>
